<?xml version="1.0" encoding="UTF-8" standalone="no"?>
<svg
   xmlns:dc="http://purl.org/dc/elements/1.1/"
   xmlns:cc="http://creativecommons.org/ns#"
   xmlns:rdf="http://www.w3.org/1999/02/22-rdf-syntax-ns#"
   xmlns:svg="http://www.w3.org/2000/svg"
   xmlns="http://www.w3.org/2000/svg"
   height="64"
   width="64"
   id="svg4031"
   xml:space="preserve"
   viewBox="0 0 64 64"
   y="0px"
   x="0px"
   version="1.1"><metadata
     id="metadata4037"><rdf:RDF><cc:Work
         rdf:about=""><dc:format>image/svg+xml</dc:format><dc:type
           rdf:resource="http://purl.org/dc/dcmitype/StillImage" /><dc:title></dc:title><cc:license
           rdf:resource="http://creativecommons.org/publicdomain/zero/1.0/" /></cc:Work><cc:License
         rdf:about="http://creativecommons.org/publicdomain/zero/1.0/"><cc:permits
           rdf:resource="http://creativecommons.org/ns#Reproduction" /><cc:permits
           rdf:resource="http://creativecommons.org/ns#Distribution" /><cc:permits
           rdf:resource="http://creativecommons.org/ns#DerivativeWorks" /></cc:License></rdf:RDF></metadata><defs
     id="defs4035" /><g
     style="fill:#c6c2ff;fill-opacity:1"
     transform="translate(-18.003513,-17.967214)"
     id="g4025"><path
       style="fill:#c6c2ff;fill-opacity:1"
       id="path4019"
       d="m 55.8,22.6 -21.2,17 C 34.2,39.9 33.8,40 33.4,40 H 21 c -1.1,0 -2,0.9 -2,2 v 16 c 0,1.1 0.9,2 2,2 h 12.3 c 0.5,0 0.9,0.2 1.2,0.4 l 21.2,17 c 1.3,1 3.2,0.1 3.2,-1.6 V 24.2 C 59,22.5 57.1,21.6 55.8,22.6 Z" /><path
       style="fill:#c6c2ff;fill-opacity:1"
       id="path4021"
       d="m 68.5,38 c -0.8,-0.8 -2,-0.8 -2.8,0 -0.8,0.8 -0.8,2 0,2.8 2.5,2.5 3.8,5.7 3.8,9.2 0,3.5 -1.4,6.7 -3.8,9.2 -0.8,0.8 -0.8,2 0,2.8 0.4,0.4 0.9,0.6 1.4,0.6 0.5,0 1,-0.2 1.4,-0.6 3.2,-3.2 5,-7.5 5,-12 0,-4.5 -1.8,-8.8 -5,-12 z" /><path
       style="fill:#c6c2ff;fill-opacity:1"
       id="path4023"
       d="m 73.8,32.7 c -0.8,-0.8 -2,-0.8 -2.8,0 -0.8,0.8 -0.8,2 0,2.8 3.9,3.9 6,9 6,14.5 0,5.5 -2.1,10.6 -6,14.5 -0.8,0.8 -0.8,2 0,2.8 0.4,0.4 0.9,0.6 1.4,0.6 0.5,0 1,-0.2 1.4,-0.6 C 78.5,62.7 81,56.5 81,50 81,43.5 78.5,37.3 73.8,32.7 Z" /></g></svg>