<?xml version="1.0" encoding="UTF-8" standalone="no"?>
<svg
   xmlns:dc="http://purl.org/dc/elements/1.1/"
   xmlns:cc="http://creativecommons.org/ns#"
   xmlns:rdf="http://www.w3.org/1999/02/22-rdf-syntax-ns#"
   xmlns:svg="http://www.w3.org/2000/svg"
   xmlns="http://www.w3.org/2000/svg"
   height="64"
   width="64"
   id="svg3926"
   xml:space="preserve"
   enable-background="new 0 0 100 100"
   viewBox="0 0 64 64"
   y="0px"
   x="0px"
   version="1.1"><metadata
     id="metadata3932"><rdf:RDF><cc:Work
         rdf:about=""><dc:format>image/svg+xml</dc:format><dc:type
           rdf:resource="http://purl.org/dc/dcmitype/StillImage" /><dc:title></dc:title><cc:license
           rdf:resource="http://creativecommons.org/publicdomain/zero/1.0/" /></cc:Work><cc:License
         rdf:about="http://creativecommons.org/publicdomain/zero/1.0/"><cc:permits
           rdf:resource="http://creativecommons.org/ns#Reproduction" /><cc:permits
           rdf:resource="http://creativecommons.org/ns#Distribution" /><cc:permits
           rdf:resource="http://creativecommons.org/ns#DerivativeWorks" /></cc:License></rdf:RDF></metadata><defs
     id="defs3930" /><g
     style="fill:#b3dba9;fill-opacity:1"
     transform="matrix(0.6975826,0,0,0.6975826,-2.9394972,-3.1390834)"
     id="g3920"><path
       style="fill:#b3dba9;fill-opacity:1"
       id="path3916"
       d="M 92.7,13.7 H 7.3 c -1.4,0 -2.5,1.1 -2.5,2.5 v 67.6 c 0,1.4 1.1,2.5 2.5,2.5 h 85.4 c 1.4,0 2.5,-1.1 2.5,-2.5 V 16.2 c 0,-1.4 -1.1,-2.5 -2.5,-2.5 z m -2.5,5 V 45.8 L 72.7,27.7 c -0.5,-0.6 -1.3,-0.8 -2.1,-0.7 -0.8,0.1 -1.5,0.5 -1.9,1.2 L 47.1,64.1 28.9,51.6 c -1.1,-0.7 -2.6,-0.5 -3.4,0.5 L 9.8,71.8 V 18.7 Z M 9.8,81.3 V 79.8 L 28,57.1 46.5,69.8 c 0.6,0.4 1.3,0.5 1.9,0.4 0.7,-0.1 1.3,-0.6 1.6,-1.2 L 71.3,33.6 90.2,53 v 28.3 z" /><path
       style="fill:#b3dba9;fill-opacity:1"
       id="path3918"
       d="m 25.3,44.3 c 5.8,0 10.6,-4.7 10.6,-10.6 0,-5.9 -4.7,-10.6 -10.6,-10.6 -5.9,0 -10.6,4.7 -10.6,10.6 0,5.9 4.8,10.6 10.6,10.6 z m 0,-16.1 c 3.1,0 5.6,2.5 5.6,5.6 0,3.1 -2.5,5.6 -5.6,5.6 -3.1,0 -5.6,-2.5 -5.6,-5.6 0.1,-3.1 2.6,-5.6 5.6,-5.6 z" /></g></svg>