<?xml version="1.0" encoding="UTF-8" standalone="no"?>
<svg
   xmlns:dc="http://purl.org/dc/elements/1.1/"
   xmlns:cc="http://creativecommons.org/ns#"
   xmlns:rdf="http://www.w3.org/1999/02/22-rdf-syntax-ns#"
   xmlns:svg="http://www.w3.org/2000/svg"
   xmlns="http://www.w3.org/2000/svg"
   width="64"
   height="64"
   viewBox="0 0 16.933333 16.933334"
   version="1.1"
   id="svg8">
  <defs
     id="defs2" />
  <metadata
     id="metadata5">
    <rdf:RDF>
      <cc:Work
         rdf:about="">
        <dc:format>image/svg+xml</dc:format>
        <dc:type
           rdf:resource="http://purl.org/dc/dcmitype/StillImage" />
        <dc:title></dc:title>
        <cc:license
           rdf:resource="http://creativecommons.org/publicdomain/zero/1.0/" />
      </cc:Work>
      <cc:License
         rdf:about="http://creativecommons.org/publicdomain/zero/1.0/">
        <cc:permits
           rdf:resource="http://creativecommons.org/ns#Reproduction" />
        <cc:permits
           rdf:resource="http://creativecommons.org/ns#Distribution" />
        <cc:permits
           rdf:resource="http://creativecommons.org/ns#DerivativeWorks" />
      </cc:License>
    </rdf:RDF>
  </metadata>
  <g
     id="layer1"
     transform="translate(0,-280.06665)">
    <text
       xml:space="preserve"
       style="font-style:normal;font-variant:normal;font-weight:normal;font-stretch:normal;font-size:22.57777778px;line-height:1.25;font-family:'Roboto Slab';-inkscape-font-specification:'Roboto Slab';letter-spacing:0px;word-spacing:0px;fill:#000000;fill-opacity:1;stroke:none;stroke-width:0.26458332;"
       x="3.0067821"
       y="285.70786"
       id="text817"><tspan
         id="tspan815"
         x="3.0067821"
         y="332.41949"
         style="stroke-width:0.26458332;font-size:22.57777778px;" /></text>
    <text
       xml:space="preserve"
       style="font-style:normal;font-variant:normal;font-weight:normal;font-stretch:normal;font-size:6.35px;line-height:1.25;font-family:'Roboto Slab';-inkscape-font-specification:'Roboto Slab';letter-spacing:0px;word-spacing:0px;fill:#000000;fill-opacity:1;stroke:none;stroke-width:0.26458332;"
       x="2.8731475"
       y="278.32452"
       id="text821"><tspan
         id="tspan819"
         x="2.8731475"
         y="325.03616"
         style="stroke-width:0.26458332;font-size:6.35px;" /></text>
    <text
       xml:space="preserve"
       style="font-style:normal;font-variant:normal;font-weight:normal;font-stretch:normal;font-size:50.79999924px;line-height:1.25;font-family:'Noto Serif';-inkscape-font-specification:'Noto Serif';letter-spacing:0px;word-spacing:0px;fill:#000000;fill-opacity:1;stroke:none;stroke-width:0.26458332;"
       x="7.4501381"
       y="281.29791"
       id="text825"><tspan
         id="tspan823"
         x="7.4501381"
         y="328.00955"
         style="font-size:8.46666622px;stroke-width:0.26458332;-inkscape-font-specification:'Noto Serif';font-family:'Noto Serif';font-weight:normal;font-style:normal;font-stretch:normal;font-variant:normal;" /></text>
    <g
       aria-label="“...”"
       style="font-style:normal;font-variant:normal;font-weight:normal;font-stretch:normal;font-size:50.79999924px;line-height:1.25;font-family:'Roboto Slab';-inkscape-font-specification:'Roboto Slab';letter-spacing:0px;word-spacing:0px;fill:#ccbe85;fill-opacity:1;stroke:none;stroke-width:0.26458332"
       id="text829">
      <path
         d="m 3.4897521,287.85508 q -0.3062111,0 -0.5334,-0.21731 -0.2271889,-0.22719 -0.2271889,-0.64205 0,-0.63218 0.3654778,-1.1557 0.3753556,-0.52353 1.2544778,-0.78035 v 0.41487 q -0.9383889,0.30621 -0.9383889,0.889 0,0.14817 0.1086556,0.22719 0.1086555,0.079 0.2469444,0.14816 0.1481667,0.0691 0.2568223,0.18768 0.1086555,0.11854 0.1086555,0.34572 0,0.28646 -0.1876778,0.43463 -0.1778,0.14816 -0.4543778,0.14816 z m -1.9755556,0 q -0.3062111,0 -0.53339999,-0.21731 -0.22718889,-0.22719 -0.22718889,-0.64205 0,-0.63218 0.36547778,-1.1557 0.3753556,-0.52353 1.2544778,-0.78035 v 0.41487 q -0.9383889,0.30621 -0.9383889,0.889 0,0.14817 0.1086556,0.22719 0.1086555,0.079 0.2469444,0.14816 0.1481667,0.0691 0.2568222,0.18768 0.1086556,0.11854 0.1086556,0.34572 0,0.28646 -0.1876778,0.43463 -0.1778,0.14816 -0.4543778,0.14816 z"
         style="font-style:normal;font-variant:normal;font-weight:normal;font-stretch:normal;font-size:9.87777805px;font-family:'Noto Serif';-inkscape-font-specification:'Noto Serif';fill:#ccbe85;fill-opacity:1;stroke-width:0.26458332"
         id="path900" />
      <path
         d="m 5.8724573,292.19143 q -0.2568222,0 -0.4445,-0.14817 -0.1778,-0.14816 -0.1778,-0.52352 0,-0.38523 0.1778,-0.52352 0.1876778,-0.14817 0.4445,-0.14817 0.2469445,0 0.4346223,0.14817 0.1876778,0.13829 0.1876778,0.52352 0,0.37536 -0.1876778,0.52352 -0.1876778,0.14817 -0.4346223,0.14817 z"
         style="font-style:normal;font-variant:normal;font-weight:normal;font-stretch:normal;font-size:9.87777805px;font-family:'Noto Serif';-inkscape-font-specification:'Noto Serif';fill:#ccbe85;fill-opacity:1;stroke-width:0.26458332"
         id="path902" />
      <path
         d="m 8.3419021,292.19143 q -0.2568222,0 -0.4445,-0.14817 -0.1778,-0.14816 -0.1778,-0.52352 0,-0.38523 0.1778,-0.52352 0.1876778,-0.14817 0.4445,-0.14817 0.2469444,0 0.4346222,0.14817 0.1876778,0.13829 0.1876778,0.52352 0,0.37536 -0.1876778,0.52352 -0.1876778,0.14817 -0.4346222,0.14817 z"
         style="font-style:normal;font-variant:normal;font-weight:normal;font-stretch:normal;font-size:9.87777805px;font-family:'Noto Serif';-inkscape-font-specification:'Noto Serif';fill:#ccbe85;fill-opacity:1;stroke-width:0.26458332"
         id="path904" />
      <path
         d="m 10.811346,292.19143 q -0.256822,0 -0.4445,-0.14817 -0.1778,-0.14816 -0.1778,-0.52352 0,-0.38523 0.1778,-0.52352 0.187678,-0.14817 0.4445,-0.14817 0.246945,0 0.434623,0.14817 0.187677,0.13829 0.187677,0.52352 0,0.37536 -0.187677,0.52352 -0.187678,0.14817 -0.434623,0.14817 z"
         style="font-style:normal;font-variant:normal;font-weight:normal;font-stretch:normal;font-size:9.87777805px;font-family:'Noto Serif';-inkscape-font-specification:'Noto Serif';fill:#ccbe85;fill-opacity:1;stroke-width:0.26458332"
         id="path906" />
      <path
         d="m 14.317957,287.86496 v -0.41487 q 0.938389,-0.30621 0.938389,-0.889 0,-0.14816 -0.108655,-0.22718 -0.108656,-0.079 -0.256823,-0.14817 -0.138288,-0.0692 -0.246944,-0.18768 -0.108656,-0.11853 -0.108656,-0.34572 0,-0.28646 0.1778,-0.43462 0.187678,-0.14817 0.464256,-0.14817 0.306211,0 0.5334,0.22719 0.227189,0.21731 0.227189,0.63218 0,0.63217 -0.375356,1.1557 -0.365477,0.52352 -1.2446,0.78034 z m -1.975555,0 v -0.41487 q 0.938389,-0.30621 0.938389,-0.889 0,-0.14816 -0.108656,-0.22718 -0.108655,-0.079 -0.256822,-0.14817 -0.138289,-0.0692 -0.246945,-0.18768 -0.108655,-0.11853 -0.108655,-0.34572 0,-0.28646 0.1778,-0.43462 0.187678,-0.14817 0.464255,-0.14817 0.306212,0 0.5334,0.22719 0.227189,0.21731 0.227189,0.63218 0,0.63217 -0.375355,1.1557 -0.365478,0.52352 -1.2446,0.78034 z"
         style="font-style:normal;font-variant:normal;font-weight:normal;font-stretch:normal;font-size:9.87777805px;font-family:'Noto Serif';-inkscape-font-specification:'Noto Serif';fill:#ccbe85;fill-opacity:1;stroke-width:0.26458332"
         id="path908" />
    </g>
  </g>
</svg>
